# xmcd
#
# Track frame offsets:
# 150
# 11277
# 26515
# 39572
# 52400
# 64837
# 79010
# 91185
# 102607
# 115190
# 127527
# 144222
# 161472
# 174820
# 189087
# 206850
# 219832
#
# Disc length: 3095 seconds
#
# Revision: 0
# Processed by: cddbd v1.5.1PL2 Copyright (c) Steve Scherf et al.
# Submitted via: Audion 3.0.2 (http://www.panic.com/audion/)
#
DISCID=d30c1511
DTITLE=Conjunto Caney De Cuba - Tradición Del Son
DYEAR=1900
DGENRE=
TTITLE0=La Guagua
TTITLE1=Pa' Que
TTITLE2=Pepe Antonio
TTITLE3=El 19
TTITLE4=Abre La Puerta Querida
TTITLE5=Sale A Buscar
TTITLE6=Tatalibaba
TTITLE7=Lola
TTITLE8=Tuya, Mas Que Tuya
TTITLE9=Aunque Me Cueste La Vida
TTITLE10=Goza Negra
TTITLE11=Como Canta Mi Contrabajo
TTITLE12=Ven Bernabe
TTITLE13=Dos Gardenias
TTITLE14=Cualqueira Resbala Y Cae
TTITLE15=Aguinaldo Antillano
TTITLE16=Reina Rumba
EXTD=
EXTT0=
EXTT1=
EXTT2=
EXTT3=
EXTT4=
EXTT5=
EXTT6=
EXTT7=
EXTT8=
EXTT9=
EXTT10=
EXTT11=
EXTT12=
EXTT13=
EXTT14=
EXTT15=
EXTT16=
PLAYORDER=
